# xmcd
#
# Track frame offsets:
#	150
#	10637
#	24810
#	32856
#	41391
#	50409
#	64113
#	69059
#	75277
#	84299
#	94103
#	103928
#
# Disc length: 1691 seconds
#
# Revision: 0
# Processed by: cddbd v1.5.1PL2 Copyright (c) Steve Scherf et al.
# Submitted via: dBpowerAMP V4.0
#
DISCID=7b06990c
DTITLE=Various Artist - O'Bluegrass Disc Two
DYEAR=2002
DGENRE=Bluegrass
TTITLE0=Mother Maybelle and The Carter Sisters - Wildwood Flower
TTITLE1=Larry Cordle and Lonesome Standard Time - Ocean of Diamonds
TTITLE2=Grandpa Jones - Mountain Dew
TTITLE3=Jimmy Martin - Rock Hearts
TTITLE4=Buzz Busby and The Bayou Boys - Mule Skinner Blues
TTITLE5=Jimmy Martin - Night
TTITLE6=Grandpa Jones - Old Rattler
TTITLE7=The Stanley Brothers - Clinch Mountain Backstep
TTITLE8=Jimmy Martin - Skip, Hop and Wobble
TTITLE9=Flatt and Scruggs - Company's Comin'
TTITLE10=Jimmy Martin - Cripple Creek
TTITLE11=Randy Howard and Bela Fleck - John Hardy
EXTD=(c) 2002 Madacy Entertainment Group, Inc.
EXTT0=
EXTT1=
EXTT2=
EXTT3=
EXTT4=
EXTT5=
EXTT6=
EXTT7=
EXTT8=
EXTT9=
EXTT10=
EXTT11=
PLAYORDER=
